HIERARCHY
ROOT joint_0
{
	OFFSET 0.000000 0.000000 0.000000
	CHANNELS 6 Xposition Yposition Zposition Zrotation Yrotation Xrotation 
	JOINT joint_1
	{
		OFFSET 0.000000 0.000000 0.000000
		CHANNELS 3 Zrotation Yrotation Xrotation
		JOINT joint_2
		{
			OFFSET 3.811170 -8.520760 0.839290
			CHANNELS 3 Zrotation Yrotation Xrotation
			JOINT joint_3
			{
				OFFSET 2.562200 -7.039590 0.000000
				CHANNELS 3 Zrotation Yrotation Xrotation
				JOINT joint_4
				{
					OFFSET 0.157640 -0.433110 2.322550
					CHANNELS 3 Zrotation Yrotation Xrotation
					End Site
					{
						OFFSET 0.000000 0.000000 0.000000
					}
				}
			}
		}
	}
	JOINT joint_5
	{
		OFFSET 0.000000 0.000000 0.000000
		CHANNELS 3 Zrotation Yrotation Xrotation
		JOINT joint_6
		{
			OFFSET -3.848050 -8.780180 0.839290
			CHANNELS 3 Zrotation Yrotation Xrotation
			JOINT joint_7
			{
				OFFSET -2.568260 -7.056230 0.000000
				CHANNELS 3 Zrotation Yrotation Xrotation
				JOINT joint_8
				{
					OFFSET -0.164730 -0.452590 2.363150
					CHANNELS 3 Zrotation Yrotation Xrotation
					End Site
					{
						OFFSET 0.000000 0.000000 0.000000
					}
				}
			}
		}
	}
	JOINT joint_9
	{
		OFFSET 0.028270 2.035590 -0.193380
		CHANNELS 3 Zrotation Yrotation Xrotation
		JOINT joint_10
		{
			OFFSET 0.056720 2.048850 -0.042750
			CHANNELS 3 Zrotation Yrotation Xrotation
			JOINT joint_11
			{
				OFFSET -0.054170 1.746240 0.172020
				CHANNELS 3 Zrotation Yrotation Xrotation
				JOINT joint_12
				{
					OFFSET 0.104070 1.761360 -0.123970
					CHANNELS 3 Zrotation Yrotation Xrotation
					End Site
					{
						OFFSET 0.000000 0.000000 0.000000
					}
				}
			}
			JOINT joint_13
			{
				OFFSET 3.362410 1.200890 -0.311210
				CHANNELS 3 Zrotation Yrotation Xrotation
				JOINT joint_14
				{
					OFFSET 4.983000 -0.000000 -0.000000
					CHANNELS 3 Zrotation Yrotation Xrotation
					JOINT joint_15
					{
						OFFSET 3.483560 -0.000000 -0.000000
						CHANNELS 3 Zrotation Yrotation Xrotation
						JOINT joint_16
						{
							OFFSET 0.715260 -0.000000 -0.000000
							CHANNELS 3 Zrotation Yrotation Xrotation
							End Site
							{
								OFFSET 0.000000 0.000000 0.000000
							}
						}
					}
				}
			}
			JOINT joint_17
			{
				OFFSET -3.136600 1.374050 -0.404650
				CHANNELS 3 Zrotation Yrotation Xrotation
				JOINT joint_18
				{
					OFFSET -5.241900 -0.000000 -0.000000
					CHANNELS 3 Zrotation Yrotation Xrotation
					JOINT joint_19
					{
						OFFSET -3.444170 -0.000000 -0.000000
						CHANNELS 3 Zrotation Yrotation Xrotation
						JOINT joint_20
						{
							OFFSET -0.622530 -0.000000 -0.000000
							CHANNELS 3 Zrotation Yrotation Xrotation
							End Site
							{
								OFFSET 0.000000 0.000000 0.000000
							}
						}
					}
				}
			}
		}
	}
}
MOTION
Frames: 16
Frame Time: 0.031667
4.847296 15.567984 -2.364512 -5.013435 -25.555210 3.808602 -7.023664 24.067280 -31.185737 -11.347894 20.179878 24.875053 -2.094734 5.900898 -13.979472 -1.695471 1.521052 -1.935193 -7.690656 -14.457353 4.263907 27.462605 -12.383063 29.405265 -2.255503 0.490812 -14.024179 -3.940504 2.155685 -0.031928 -1.053464 -2.066814 0.885371 1.660671 -4.030588 -8.535977 -1.046066 3.175195 -0.957591 2.417991 2.013295 2.032458 -36.497287 -39.098883 5.106518 69.843170 -64.386961 3.066596 3.730466 3.270539 -4.128345 4.600956 1.365648 -4.006744 98.045242 28.557960 43.915557 -87.637482 71.199969 -2.710992 -0.369876 -2.122952 -4.712063 -3.140345 -1.774317 -4.185243 
4.817107 15.564921 -2.375835 -4.960369 -25.233309 3.832239 -6.657629 23.232870 -29.524250 -10.053070 17.760016 19.341197 0.968779 5.537846 -18.791791 0.540305 0.848061 -2.030692 -7.495854 -14.807340 7.396834 26.159530 -11.950123 24.216865 -3.634583 3.849102 -12.591660 -2.591420 0.558621 -2.643024 0.799592 4.346789 -1.894113 -5.933194 -1.634765 -6.792375 -4.456679 4.658087 2.772144 -4.409077 1.852771 4.277822 -42.406991 -31.195035 11.022518 68.241741 -62.229064 -3.687932 4.368196 -1.112904 -0.648714 -2.432153 0.943904 2.234132 94.686617 29.336465 41.062185 -92.023056 65.908768 3.092727 2.765668 0.499206 3.358492 3.352464 1.670575 0.898632 
4.786918 15.561857 -2.387158 -4.907456 -24.911741 3.856510 -3.930327 22.705526 -35.221227 -6.298885 19.552614 26.620592 -3.394038 4.418660 -17.760341 -1.865550 -2.804903 0.185788 -0.428271 -12.711531 9.741107 27.633787 -15.995879 25.294780 2.312267 -4.624947 -14.131189 -4.377791 -4.511762 4.312955 0.608996 0.529490 -8.555233 3.006745 -4.417373 -5.096068 -2.477386 1.637416 0.035241 3.004980 -1.125028 -4.042104 -39.591790 -36.540830 3.229857 68.014138 -65.124465 2.158105 2.268788 -1.898790 1.739560 2.507648 -1.822503 1.184616 96.216066 26.212590 37.605804 -87.242403 71.165267 -0.871891 -1.188560 -3.861523 4.716126 2.100925 2.627475 4.107919 
4.756367 15.558990 -2.397638 -4.866138 -24.549143 3.883723 -6.820970 21.614046 -31.349368 -11.976580 17.532165 26.190926 0.514990 9.682652 -11.517321 -2.900388 3.585245 3.466177 -6.374683 -17.527573 2.320899 34.526743 -17.745462 29.261467 5.046570 0.471055 -10.970141 -2.541584 -1.894948 4.433132 0.604417 0.707423 -3.800521 2.812270 -3.691856 -11.303810 2.359454 2.185312 0.333698 -3.301296 -0.224436 -4.272792 -41.576709 -32.789983 4.516267 68.209854 -65.904649 3.891143 3.481692 0.081711 -4.755610 -3.532058 1.343891 0.060126 100.711272 26.853090 44.523513 -92.889988 64.385718 4.442684 3.600111 1.474321 4.978636 -4.415499 3.352207 -3.250896 
4.725811 15.556126 -2.408110 -4.825040 -24.186731 3.911492 -9.230107 22.038862 -29.332879 -3.346185 11.344788 20.411724 -2.751234 3.118550 -9.624394 -0.524195 -4.290448 0.674305 -2.213925 -12.532494 6.068403 29.248670 -17.847955 27.963972 4.976533 -0.562387 -7.894273 1.521461 -0.854571 -4.760571 -0.875060 1.257288 -5.807040 -1.021883 -0.324281 -5.874634 1.000364 2.918442 -0.973255 -0.694136 -0.412166 -4.536074 -41.008046 -37.858243 2.650018 74.067331 -63.309786 -4.943328 -2.090485 -3.670095 -4.651250 -1.558421 0.897854 -0.350241 94.577352 24.507189 40.991370 -92.012500 66.776998 -1.780409 -0.175990 2.062929 4.746455 -3.852888 4.064006 -4.326432 
4.695186 15.553324 -2.417671 -4.793570 -23.777342 3.938570 -11.274228 25.972414 -26.704843 -7.564528 20.523134 22.130313 2.869048 5.615202 -15.266848 1.458076 -0.894721 2.925689 -4.322963 -16.943599 3.547791 32.863915 -21.548670 29.881321 -1.693020 -3.535758 -10.389431 2.989809 -0.369875 4.407731 -3.460100 3.658228 -4.676154 -0.551592 3.699199 -7.749493 -1.195718 -1.504807 4.864281 1.109636 -4.774081 2.126147 -41.903916 -32.179317 10.977930 68.790439 -63.168435 -0.835277 -2.865345 -0.945870 3.552262 -0.744338 2.473168 -2.232567 103.269275 32.994782 43.912226 -95.619898 61.960561 -1.542525 0.981365 3.715050 2.598209 4.803901 0.716411 -1.035286 
4.664560 15.550523 -2.427211 -4.762252 -23.367880 3.965985 -9.480601 25.478612 -35.429773 -6.437381 14.515010 22.374278 3.014324 10.011280 -9.868528 -2.216693 0.762737 -3.645299 -8.432604 -15.548364 11.209675 31.827674 -20.013371 27.463483 0.985547 -4.755186 -15.044685 -3.838471 4.472199 3.252027 -2.592255 -2.597348 -6.280264 -6.675625 -2.311165 -9.473441 1.006549 -2.523304 3.325985 3.643775 1.301146 -2.943592 -35.521314 -30.465518 11.132725 72.168580 -61.057515 2.628001 -4.239440 3.896037 -3.152878 -1.562456 -0.654343 0.816612 99.187930 30.019496 40.573990 -91.564450 65.932482 3.809658 2.786458 -2.601129 4.359691 -3.847471 -1.301030 3.775997 
4.634356 15.547652 -2.435450 -4.730384 -22.914324 3.990155 -6.307314 17.567098 -35.798333 -11.390670 12.316111 26.334215 2.218643 0.591733 -15.299681 -4.627178 3.298365 -1.698093 -4.011989 -19.232525 9.746804 36.238720 -17.244898 27.933731 4.896359 -5.106384 -7.339467 -2.294580 0.636575 -1.327187 -0.678669 -2.027739 -3.022442 0.366183 3.097525 -6.006853 2.922895 3.027751 2.875671 -3.993538 0.833917 0.982888 -37.622257 -36.871487 6.933023 69.156854 -66.092822 0.390686 -3.566692 0.932082 3.766084 -2.956451 2.009181 3.518466 95.527235 32.560782 40.443182 -89.890111 60.849098 -1.721398 -1.969376 -4.272603 -2.785207 0.604801 1.810245 1.528745 
4.604167 15.544780 -2.443646 -4.698308 -22.460527 4.014283 -8.350606 18.012260 -28.658168 -3.943769 11.746402 20.062930 -4.862290 9.015080 -12.388398 0.249285 -2.681869 0.642532 -7.936589 -17.679943 2.626687 29.314192 -19.808473 21.102221 -2.337107 2.214402 -13.328005 -0.758940 3.977960 -3.938825 -1.226278 5.434382 -6.552254 -5.945669 1.019390 -5.531064 2.351821 0.622419 2.051497 3.889122 -0.284398 -0.639794 -36.250172 -38.732275 8.906481 76.339623 -69.737101 1.218448 0.176064 2.678899 -0.084931 1.950560 3.777945 4.779262 100.956051 31.961527 44.695654 -97.041052 69.827968 -3.749155 -4.672393 -2.658486 -2.196117 2.529375 -3.151405 -1.723594 
4.574755 15.541664 -2.450464 -4.659977 -21.971764 4.033286 -11.500365 18.366121 -33.805935 -6.821815 19.748536 24.567301 3.356540 1.724232 -12.707821 4.133178 -0.618201 4.825780 -8.844029 -19.494104 9.913650 32.607522 -19.771984 23.750714 1.707964 -1.061849 -13.571154 -3.790842 2.093461 -3.022596 -2.109164 -2.604642 -0.226317 -5.513311 2.278834 -6.829862 -4.310886 0.774189 -0.442971 1.255691 0.010381 4.183490 -46.271215 -38.159620 10.830802 69.763571 -63.205730 -4.126508 3.028028 2.013889 0.281183 -0.086915 -3.765605 2.292499 98.909057 24.253921 37.088082 -88.035826 66.254073 1.890745 2.273047 -4.279622 -2.742681 -2.817579 -4.617579 -0.811758 
4.545377 15.538537 -2.457219 -4.621037 -21.482920 4.051727 -7.511159 19.885477 -34.959642 -4.266638 18.674636 18.572631 -4.134198 8.093840 -9.922895 4.180119 2.797307 0.586810 -6.036798 -11.270925 4.188156 29.998029 -18.247735 24.463764 5.739906 2.897629 -8.705422 3.058719 -3.095186 -3.662302 2.551798 -1.320145 -0.132605 -1.819086 -0.982761 -10.827143 -0.365943 -0.674834 -1.637391 1.994048 -0.104926 1.818978 -44.980294 -36.450727 4.760599 71.295927 -71.531399 -2.549501 -2.913569 4.493711 -1.815391 4.574387 -4.991473 -1.133765 99.028719 28.519394 38.839384 -93.355032 60.713408 3.852492 0.901316 4.020252 2.785432 3.314493 -0.466412 2.211852 
4.516542 15.534935 -2.463170 -4.581652 -20.968489 4.067556 -7.661821 23.943323 -31.325389 -12.669834 12.282354 22.600626 -5.444020 7.920116 -11.307443 -0.862025 -4.888021 -2.662824 -1.123059 -13.839061 11.866053 35.536944 -19.367624 28.832325 3.945536 -2.046289 -13.058416 -0.314721 1.683672 4.413885 1.789939 1.070225 1.408574 0.980548 -3.601391 -12.917575 3.397985 2.095949 -3.594654 4.498464 -2.267114 -0.091287 -43.950659 -33.238500 9.080381 75.949309 -63.493066 1.871993 -1.485332 -3.146608 2.099159 -0.308152 3.557840 -4.768993 93.901484 29.284304 35.333783 -89.168935 62.192383 3.022848 0.572150 3.876878 -0.817219 -3.636215 -4.326716 -0.256595 
4.487737 15.531307 -2.469074 -4.541675 -20.454391 4.082503 -3.440115 17.952228 -31.400336 -8.719540 15.818935 18.117025 -3.460600 2.515961 -15.464542 4.452722 4.757635 3.076417 -1.874069 -15.371038 9.880311 33.215992 -19.349237 24.100003 -1.474746 -6.307889 -11.418357 -2.777322 -1.730540 -0.717769 4.781866 0.260647 -5.253507 -6.275295 4.407804 -9.776860 -3.858887 -3.302965 4.897524 1.217462 -0.868219 -4.849437 -41.459196 -35.922858 7.722795 78.515833 -73.082479 -0.095581 -1.832836 -0.800139 -1.245465 -2.809716 4.423922 3.592422 98.389247 25.125328 38.228876 -91.074273 65.322721 0.481324 -4.722589 -0.932107 -4.032352 3.960917 0.141089 1.389238 
4.458851 15.527076 -2.475104 -4.513051 -19.916304 4.102259 -6.173731 25.647818 -31.947913 -6.215787 14.499414 23.601925 -4.544637 6.713605 -11.485438 4.119848 -4.907176 -3.250886 -0.131421 -12.834131 12.803036 33.057868 -18.836238 24.265875 5.360638 3.130500 -14.742894 1.173482 3.132940 -3.739329 2.945015 3.802353 -1.369226 1.031495 3.037259 -7.799666 2.002337 -2.181509 1.339642 0.096698 1.343221 1.062032 -43.007767 -31.688812 4.071271 77.466147 -65.682282 1.587152 -0.476910 1.494059 -1.301857 -4.391250 2.631831 -4.510599 97.128974 27.924898 40.383288 -89.538611 68.074036 2.201015 -2.650101 -2.711916 -3.180013 0.122150 -0.227446 1.171592 
4.429958 15.522803 -2.481144 -4.484348 -19.378630 4.121274 -6.071651 21.562374 -34.707183 -2.817730 13.137154 22.976991 0.856344 5.392603 -16.168068 -2.591552 -3.460744 -3.440470 -2.629873 -11.480428 7.488216 35.933761 -18.175915 26.229066 -0.026877 -4.511982 -10.724994 -2.558191 4.569102 2.040340 5.096588 3.326231 0.062419 -5.504247 4.054176 -9.539190 -1.669007 -3.266042 0.847359 -3.782984 -1.720546 1.599756 -45.308950 -30.044924 2.620763 77.844796 -66.175744 -4.627005 2.955624 -2.666713 -3.809703 2.534302 0.904751 1.663218 94.057387 35.320178 41.902759 -90.181014 63.919513 -2.412786 -4.331835 4.806657 0.907164 -1.954187 -3.941082 -2.792072 
4.400309 15.517949 -2.488713 -4.471485 -18.805061 4.150620 -3.764522 18.970369 -32.828654 -3.411977 9.623124 27.575127 3.033158 7.334297 -7.656887 1.736746 -2.351707 2.455857 0.640073 -18.149655 10.692100 33.403168 -20.234528 26.400860 2.828393 -4.598523 -18.327480 -4.332706 -3.023387 1.402686 -1.684678 0.926042 0.143286 -5.596026 3.813754 -11.630869 4.785687 -4.249481 1.778767 4.023116 1.535851 -4.624500 -45.728620 -31.673676 -0.824716 78.643752 -67.148293 -4.330270 -2.291865 -3.713220 -1.533988 -4.674952 -4.487132 -4.711429 96.498370 27.781921 39.750262 -88.154427 63.013813 -0.648829 -2.963903 3.999605 -4.321526 -3.788880 2.747774 3.659029 
